<?xml version="1.0" encoding="UTF-8" standalone="no"?>
<svg
   xmlns:dc="http://purl.org/dc/elements/1.1/"
   xmlns:cc="http://creativecommons.org/ns#"
   xmlns:rdf="http://www.w3.org/1999/02/22-rdf-syntax-ns#"
   xmlns:svg="http://www.w3.org/2000/svg"
   xmlns="http://www.w3.org/2000/svg"
   xmlns:sodipodi="http://sodipodi.sourceforge.net/DTD/sodipodi-0.dtd"
   xmlns:inkscape="http://www.inkscape.org/namespaces/inkscape"
   width="86.672585mm"
   height="99.702919mm"
   viewBox="0 0 86.672585 99.702919"
   version="1.1"
   id="svg8"
   inkscape:version="1.0.2 (e86c870879, 2021-01-15)"
   sodipodi:docname="shovel.svg">
  <defs
     id="defs2" />
  <sodipodi:namedview
     id="base"
     pagecolor="#ffffff"
     bordercolor="#666666"
     borderopacity="1.0"
     inkscape:pageopacity="0.0"
     inkscape:pageshadow="2"
     inkscape:zoom="0.98994949"
     inkscape:cx="328.76361"
     inkscape:cy="186.19804"
     inkscape:document-units="mm"
     inkscape:current-layer="layer1"
     inkscape:document-rotation="0"
     showgrid="false"
     inkscape:window-width="1916"
     inkscape:window-height="1037"
     inkscape:window-x="0"
     inkscape:window-y="20"
     inkscape:window-maximized="1" />
  <metadata
     id="metadata5">
    <rdf:RDF>
      <cc:Work
         rdf:about="">
        <dc:format>image/svg+xml</dc:format>
        <dc:type
           rdf:resource="http://purl.org/dc/dcmitype/StillImage" />
        <dc:title></dc:title>
      </cc:Work>
    </rdf:RDF>
  </metadata>
  <g
     inkscape:label="Layer 1"
     inkscape:groupmode="layer"
     id="layer1"
     transform="translate(-35.977686,-102.5005)">
    <g
       id="g860"
       transform="rotate(3.1155121,413.84381,-63.087185)">
      <path
         style="fill:#666666;stroke:#000000;stroke-width:2;stroke-linecap:butt;stroke-linejoin:miter;stroke-miterlimit:4;stroke-dasharray:none;stroke-opacity:1"
         d="m 63.286795,171.02705 c -8.414154,4.16438 -11.934308,15.87331 -12.487399,25.2453 -0.452139,7.66138 1.177757,17.66595 7.709902,21.69488 7.663172,4.72653 19.513171,1.94305 26.803325,-3.3407 8.656004,-6.27368 16.512887,-18.70354 13.674048,-29.01016 -1.702359,-6.18055 -10.027819,-8.29211 -15.950953,-10.7444 -6.196495,-2.56546 -13.738228,-6.81976 -19.748923,-3.84492 z"
         id="path10"
         sodipodi:nodetypes="aaaaaaa" />
      <path
         style="fill:#784421;stroke:#000000;stroke-width:2;stroke-linecap:butt;stroke-linejoin:miter;stroke-miterlimit:4;stroke-dasharray:none;stroke-opacity:1"
         d="m 78.556915,170.91874 c 4.152743,-9.24548 17.548546,-25.11097 20.431763,-35.09421 1.376322,-4.76556 -11.782828,-0.29809 -14.129869,-4.66801 -1.32641,-2.46962 0.35135,-6.01603 2.210453,-8.11416 0.924056,-1.04286 2.542369,-1.99422 3.871526,-1.57615 9.949212,3.12941 25.975552,7.45802 40.237762,13.96371 1.80803,0.82473 0.64542,4.35871 -0.56484,5.93491 -1.31163,1.70821 -3.90457,2.14999 -6.05583,2.25213 -5.56154,0.26405 -12.71958,-8.70849 -16.13701,-4.31285 -7.4859,9.62867 -10.537976,24.5443 -17.325909,38.56739 -0.850084,1.75618 -6.324147,1.61183 -8.857625,0.0953 -2.274061,-1.36128 -4.191172,-5.9109 -3.680421,-7.04802 z"
         id="path12"
         sodipodi:nodetypes="ssaassaassas" />
      <path
         style="fill:none;stroke:#000000;stroke-width:2;stroke-linecap:butt;stroke-linejoin:miter;stroke-miterlimit:4;stroke-dasharray:none;stroke-opacity:1"
         d="m 78.556915,170.91878 c 0,0 -6.699938,12.83842 -7.429309,19.87272 -0.248872,2.40021 -1.004069,5.95735 1.089838,7.15674 1.792465,1.02672 4.11782,-1.0371 5.756561,-2.29472 5.831145,-4.47501 13.186321,-17.67406 13.186321,-17.67406"
         id="path837"
         sodipodi:nodetypes="caaac" />
    </g>
  </g>
</svg>
