<?xml version="1.0" encoding="UTF-8" standalone="no"?>
<svg
   xmlns:dc="http://purl.org/dc/elements/1.1/"
   xmlns:cc="http://creativecommons.org/ns#"
   xmlns:rdf="http://www.w3.org/1999/02/22-rdf-syntax-ns#"
   xmlns:svg="http://www.w3.org/2000/svg"
   xmlns="http://www.w3.org/2000/svg"
   xmlns:sodipodi="http://sodipodi.sourceforge.net/DTD/sodipodi-0.dtd"
   xmlns:inkscape="http://www.inkscape.org/namespaces/inkscape"
   width="90.563156mm"
   height="90.563156mm"
   viewBox="0 0 90.563157 90.563156"
   version="1.1"
   id="svg8"
   inkscape:version="1.0.2 (e86c870879, 2021-01-15)"
   sodipodi:docname="water.svg">
  <defs
     id="defs2" />
  <sodipodi:namedview
     id="base"
     pagecolor="#ffffff"
     bordercolor="#666666"
     borderopacity="1.0"
     inkscape:pageopacity="0.0"
     inkscape:pageshadow="2"
     inkscape:zoom="0.98994949"
     inkscape:cx="521.61672"
     inkscape:cy="163.25732"
     inkscape:document-units="mm"
     inkscape:current-layer="layer1"
     inkscape:document-rotation="0"
     showgrid="false"
     inkscape:window-width="1916"
     inkscape:window-height="1037"
     inkscape:window-x="0"
     inkscape:window-y="20"
     inkscape:window-maximized="1" />
  <metadata
     id="metadata5">
    <rdf:RDF>
      <cc:Work
         rdf:about="">
        <dc:format>image/svg+xml</dc:format>
        <dc:type
           rdf:resource="http://purl.org/dc/dcmitype/StillImage" />
        <dc:title></dc:title>
      </cc:Work>
    </rdf:RDF>
  </metadata>
  <g
     inkscape:label="Layer 1"
     inkscape:groupmode="layer"
     id="layer1"
     transform="translate(-33.728654,-108.57023)">
    <g
       id="g874"
       transform="translate(-26.079736,-0.94753923)">
      <rect
         style="fill:#0e43a5;fill-opacity:1;stroke:#000000;stroke-width:2.00001;stroke-linecap:round;stroke-linejoin:round;stroke-miterlimit:4;stroke-dasharray:none;stroke-opacity:1"
         id="rect862"
         width="88.563148"
         height="88.563148"
         x="60.808395"
         y="110.51778"
         ry="20.087008" />
      <path
         style="fill:none;stroke:#000000;stroke-width:2;stroke-linecap:round;stroke-linejoin:round;stroke-miterlimit:4;stroke-dasharray:none;stroke-opacity:1"
         d="m 72.275246,134.4927 c 0,0 6.385411,-5.97307 10.384343,-6.0083 4.267042,-0.0376 6.92467,6.23842 11.191814,6.21489 3.701333,-0.0204 5.951122,-5.3102 9.647767,-5.49756 4.59455,-0.23288 8.07814,6.31349 12.62062,5.58545 3.33742,-0.53491 4.15425,-6.55405 7.5256,-6.79605 4.38591,-0.31483 10.95274,7.35227 10.95274,7.35227"
         id="path864"
         sodipodi:nodetypes="caaaaac" />
      <path
         style="fill:none;stroke:#000000;stroke-width:2;stroke-linecap:round;stroke-linejoin:round;stroke-miterlimit:4;stroke-dasharray:none;stroke-opacity:1"
         d="m 72.275246,155.65722 c 0,0 6.385411,-5.97307 10.384343,-6.0083 4.267042,-0.0376 6.92467,6.23842 11.191814,6.21489 3.701333,-0.0204 5.951122,-5.3102 9.647767,-5.49756 4.59455,-0.23288 8.07814,6.31349 12.62062,5.58545 3.33742,-0.53491 4.15425,-6.55405 7.5256,-6.79605 4.38591,-0.31483 10.95274,7.35227 10.95274,7.35227"
         id="path866"
         sodipodi:nodetypes="caaaaac" />
      <path
         style="fill:none;stroke:#000000;stroke-width:2;stroke-linecap:round;stroke-linejoin:round;stroke-miterlimit:4;stroke-dasharray:none;stroke-opacity:1"
         d="m 72.275246,178.00317 c 0,0 6.385411,-5.97307 10.384343,-6.0083 4.267042,-0.0376 6.92467,6.23842 11.191814,6.21489 3.701333,-0.0204 5.951122,-5.3102 9.647767,-5.49756 4.59455,-0.23288 8.07814,6.31349 12.62062,5.58545 3.33742,-0.53491 4.15425,-6.55405 7.5256,-6.79605 4.38591,-0.31483 10.95274,7.35227 10.95274,7.35227"
         id="path868"
         sodipodi:nodetypes="caaaaac" />
    </g>
  </g>
</svg>
